
<svg xmlns="http://www.w3.org/2000/svg" version="1.1" xmlns:xlink="http://www.w3.org/1999/xlink" preserveAspectRatio="none" x="0px" y="0px" width="3258px" height="820px" viewBox="0 0 3258 820">
<defs>
<g id="Layer0_0_FILL">
<path fill="#919090" stroke="none" d="
M 1778.5 494.05
L 1742.65 494.05 1753.5 440.8 1734.2 440.8 1723.35 494.05 1691.9 494.05 1688.35 511.4 1719.8 511.4 1692.65 644.6 1711.95 644.6 1739.1 511.4 1774.95 511.4 1778.5 494.05
M 1930.85 576.3
L 1932.3 570.55
Q 1938.8 538.55 1921.2 514.75 1903.05 490.15 1870 490.15 1838.4 490.15 1810.6 513.4 1782.65 536.8 1776 569.45 1769.35 602.25 1787.75 625.4 1806 648.25 1838 648.25 1862.5 648.25 1885.65 634 1909.25 619.35 1922.6 595.25
L 1902.35 595.25
Q 1893.05 611.55 1875.8 621.35 1859.1 630.9 1841.3 630.9 1819.35 630.9 1805.3 614.9 1790.95 598.65 1794.3 576.3
L 1930.85 576.3
M 1797.85 558.95
Q 1806.4 536 1826.05 521.6 1845.15 507.5 1866.45 507.5 1888.65 507.5 1902.05 521.9 1915.5 536.25 1915 558.95
L 1797.85 558.95
M 1603.1 502
Q 1588.55 513.8 1584.85 531.95 1581.25 549.7 1590.9 559.5 1597.6 566.5 1619.05 574.95 1643.7 584.65 1639.8 603.85 1634.3 630.9 1606.3 630.9 1579.95 630.9 1585.85 599.95
L 1566.55 599.95 1566.35 601.05
Q 1562.05 622.15 1572.75 635.35 1583.1 648.25 1602.75 648.25 1624.35 648.25 1639.75 635.85 1654.9 623.65 1659.1 603.05 1662.7 585.45 1656.7 575.35 1649.4 563.4 1625.45 554.8 1601.1 546.2 1604.4 530.05 1606.35 520.4 1614.35 513.95 1622.25 507.5 1631.75 507.5 1641.1 507.5 1645.95 513.8 1650.85 520.25 1649.4 531.15
L 1668.65 531.15
Q 1672.3 513.4 1662.6 501.7 1653.25 490.15 1636.1 490.15 1617.6 490.15 1603.1 502
M 1578.05 494.05
L 1557.85 494.05 1482.3 614.1 1459 494.05 1438.8 494.05 1467.5 639.65 1429.6 697.45 1449.7 697.45 1578.05 494.05
M 2135.4 507.5
Q 2155.25 507.5 2163.35 521.05 2170.8 534.1 2166.3 556.3
L 2148.3 644.6 2167.6 644.6 2186 554.25
Q 2191.65 526.6 2179.7 508.95 2167.1 490.15 2138.95 490.15 2107.1 490.15 2082.6 519.05 2072 490.15 2038.15 490.15 2010.7 490.15 1992.95 511.4
L 1996.5 494.05 1977.25 494.05 1946.55 644.6 1965.8 644.6 1983.75 556.55
Q 1988.35 533.95 2001.45 520.95 2014.9 507.5 2034.6 507.5 2054.15 507.5 2062.25 520.95 2070.05 533.95 2065.45 556.55
L 2047.5 644.6 2066.65 644.6 2084.55 556.8
Q 2089.15 534.25 2102.4 521.05 2116 507.5 2135.4 507.5
M 1397.35 466.35
Q 1405.95 477.25 1402.8 492.7
L 1423.15 492.7
Q 1427.95 469.2 1414.85 453.2 1401.9 437.35 1378.2 437.35 1354.35 437.35 1334.75 452.65 1314.8 468.4 1310 492.05 1304.9 517.05 1319.7 530.5 1329.35 539.2 1355.55 547.15 1394.2 559.1 1388.1 589.2 1384.65 606 1370.45 617.85 1356.15 629.7 1339 629.7 1320.65 629.7 1311.55 618.5 1302.35 607.1 1305.4 587.6
L 1285.05 587.6
Q 1279.95 614.6 1294 631.55 1308.05 648.25 1335.2 648.25 1360.8 648.25 1382.15 630.75 1403.5 613.4 1408.6 588.4 1418.1 541.9 1362.4 526.7 1342.3 521.35 1334.85 512.75 1327.8 504.55 1330.5 491.25 1333.55 476.3 1346.1 466.1 1358.9 455.75 1374.45 455.75 1388.9 455.75 1397.35 466.35 Z"/>

<path fill="#259FD3" stroke="none" d="
M 2100.85 223.25
Q 2074.35 246.75 2067.4 280.9 2060.25 315.85 2076.75 339.1 2093.5 362.65 2126.95 362.65 2142.25 362.65 2155.55 356.85 2169.15 350.8 2176.1 340.85
L 2176.6 340.85 2173.25 357.4 2218.8 357.4 2249.95 204.55 2204.4 204.55 2201.1 220.85 2200.6 220.85
Q 2191.55 199.3 2160.2 199.3 2127.8 199.3 2100.85 223.25
M 2112.85 281.45
Q 2116.2 264.9 2129.25 253.5 2142.4 242.05 2158.05 242.05 2174.15 242.05 2183.1 253.35 2192.15 264.8 2188.85 280.9 2185.5 297.3 2172.05 308.75 2158.85 319.9 2142.75 319.9 2126.95 319.9 2118.3 308.6 2109.6 297.3 2112.85 281.45
M 2030.2 220.85
L 2029.65 220.85 2032.95 204.55 1990.25 204.55 1959.1 357.4 2004.65 357.4 2021.85 273.1
Q 2027.4 245.7 2063.35 245.3
L 2072.7 199.3
Q 2045.15 199.3 2030.2 220.85
M 2407.45 226.6
Q 2398 199.3 2369.2 199.3 2339.05 199.3 2322.8 220.85
L 2322.25 220.85 2325.55 204.55 2283.1 204.55 2251.95 357.4 2297.5 357.4 2314.25 275.15
Q 2320.95 242.35 2346.65 242.35 2369.4 242.35 2363.15 273.1
L 2345.95 357.4 2391.5 357.4 2408.75 272.85
Q 2414.95 242.35 2440.25 242.35 2463.55 242.35 2456.85 275.15
L 2440.1 357.4 2485.65 357.4 2504.9 263.05
Q 2511.25 231.7 2499.1 215.2 2487.55 199.3 2461.3 199.3 2430.25 199.3 2407.45 226.6
M 2727 199.3
Q 2695.95 199.3 2673.15 226.6 2663.7 199.3 2634.9 199.3 2604.75 199.3 2588.5 220.85
L 2587.95 220.85 2591.25 204.55 2548.8 204.55 2517.65 357.4 2563.2 357.4 2579.95 275.15
Q 2586.65 242.35 2612.35 242.35 2635.1 242.35 2628.85 273.1
L 2611.65 357.4 2657.2 357.4 2674.45 272.85
Q 2680.65 242.35 2705.95 242.35 2729.25 242.35 2722.55 275.15
L 2705.8 357.4 2751.35 357.4 2770.6 263.05
Q 2776.95 231.7 2764.8 215.2 2753.25 199.3 2727 199.3
M 2946.95 294.9
L 2950.45 282.8
Q 2957.7 247.3 2939.55 223.4 2921.25 199.3 2887.1 199.3 2853.9 199.3 2825.5 223.9 2797.35 248.1 2790.6 281.45 2783.7 315.2 2802.85 339 2821.65 362.35 2854.85 362.35 2878.95 362.35 2901.35 348.4 2923.9 334.4 2939.9 309.55
L 2893.2 309.55
Q 2879.3 323.8 2862.7 323.8 2848.65 323.8 2840.35 315.85 2832.1 307.95 2832.85 294.9
L 2946.95 294.9
M 2879.25 237.9
Q 2892.4 237.9 2900.6 245.15 2908.45 252.3 2908.75 264.1
L 2839.65 264.1
Q 2844.75 252.15 2855.9 244.9 2866.8 237.9 2879.25 237.9
M 3064.5 245.3
L 3073.85 199.3
Q 3046.3 199.3 3031.35 220.85
L 3030.8 220.85 3034.1 204.55 2991.4 204.55 2960.25 357.4 3005.8 357.4 3023 273.1
Q 3028.55 245.7 3064.5 245.3
M 3142.15 153.6
L 3094.45 153.6 3086.75 235.5 3116.05 235.5 3142.15 153.6
M 3258.15 247.6
Q 3261.1 225.25 3247.7 212.25 3234.5 199.3 3209.6 199.3 3185.6 199.3 3165.85 212.9 3144.85 227.3 3140.4 249.2 3134.4 279.15 3179.85 294.1 3195.55 299.35 3200.4 303.65 3205.1 307.65 3203.75 314.1 3202.7 319.35 3197 322.7 3191.7 326.1 3185.4 326.1 3170.15 326.1 3170.95 311.95
L 3125.7 311.95
Q 3123.5 335.2 3137.65 348.95 3151.55 362.65 3177.4 362.65 3203.9 362.65 3224.2 348.55 3245.2 334 3250 310.6 3253.5 293.3 3245.25 282.55 3236.35 271.1 3211.4 264.1 3196.2 259.8 3190.95 256.2 3185.25 252.3 3186.5 246.25 3187.4 241.8 3191.75 239 3196.1 236 3201.85 236 3215.55 236 3213.45 247.6
L 3258.15 247.6
M 1909.65 218.95
L 1909.1 218.95
Q 1901 199.75 1870.9 199.75 1838.05 199.75 1811.3 223.25 1784.8 246.75 1777.6 282 1770.6 316.55 1787.5 339.4 1804.5 362.35 1837.75 362.35 1852.05 362.35 1864.65 356.45 1877.65 350.3 1884.85 339.5
L 1883.95 343.95
Q 1879.75 364.5 1867.65 375.8 1855.65 386.85 1838.2 386.85 1818.65 386.85 1814.65 371.65
L 1762.05 371.65
Q 1760.35 394.5 1777.05 409.55 1794.75 425.4 1825.95 425.4 1853.8 425.4 1877.85 414.65 1900.8 404.3 1912.6 387.9 1923.9 372.3 1930.25 341.15
L 1958.1 204.55 1912.6 204.55 1909.65 218.95
M 1892.3 253.65
Q 1900.35 264.8 1896.85 281.7 1893.5 298.25 1881 309 1868.5 319.65 1851.9 319.65 1835.85 319.65 1827.75 308.05 1820.15 296.8 1823.5 280.4 1826.7 264.65 1839.6 253.5 1852.55 242.35 1867.65 242.35 1884.15 242.35 1892.3 253.65
M 1759.25 280.4
Q 1766.3 245.85 1747.2 222.7 1728.3 199.75 1693.75 199.75 1659.2 199.75 1631 222.45 1602.4 245.7 1595.25 280.9 1588.1 315.85 1607 339 1625.7 362.1 1660.65 362.1 1695.35 362.1 1723.5 339.1 1752 315.85 1759.25 280.4
M 1708.85 253.9
Q 1716.85 265.2 1713.65 280.9 1710.45 296.5 1697.95 307.8 1685.05 319.35 1669.35 319.35 1654.1 319.35 1645.75 307.95 1637.6 296.65 1640.8 280.9 1644 265.05 1656.9 253.75 1669.8 242.35 1684.8 242.35 1700.45 242.35 1708.85 253.9
M 1591.2 245.3
L 1600.55 199.3
Q 1573 199.3 1558.05 220.85
L 1557.5 220.85 1560.8 204.55 1518.1 204.55 1486.95 357.4 1532.5 357.4 1549.7 273.1
Q 1555.25 245.7 1591.2 245.3
M 1492.95 185.5
Q 1486.8 169.1 1471.85 161.4 1455.95 153.35 1424.85 153.6
L 1356.3 153.6 1314.75 357.4 1364.4 357.4 1377.4 293.55 1401.5 293.55
Q 1442.35 293.55 1467.2 272.2 1488.65 253.65 1495 222.45 1499.2 201.9 1492.95 185.5
M 1396.6 199.3
L 1416.85 199.3
Q 1450.05 199.3 1445.15 223.4 1440.2 247.85 1409 247.85
L 1386.75 247.85 1396.6 199.3
M 800.95 585.35
Q 725.1 571.45 649.9 557.6 573.85 543.65 498.9 529.5 488.9 527.6 479.05 527.95 421.05 530.1 364.7 539.2 286.45 551.9 208 563 213.25 567.75 220.75 570.6 285.15 595.3 349 621 412.8 646.65 476.85 672.45 540.45 698.05 605 723 649 710.5 692.9 697.7 762 677.5 831.1 657.4 900.6 637.15 970 617 961.55 614.45 952.05 612.75 876.3 599.2 800.95 585.35
M 1090.6 365.75
Q 1104.25 288.8 1118 213.8 1132 137.5 1145 61 1108.7 68.2 1072 74.95 996.35 88.8 921 102.9 845.5 117 770 131.05 694.65 145.15 619 159 613.7 171.7 609 185.65 586.6 252.05 564 318.35 541.1 385.6 517 451 517 452 517.15 452.05 555.2 458.8 593.1 464.35 671.55 475.9 749.9 487.7 827.15 499.35 905.9 510.75 983.45 522 1062 533 1062.6 524.6 1063.8 517.8 1077.25 440.8 1090.6 365.75 Z"/>

<path fill="#949494" fill-opacity="0.9921568627450981" stroke="none" d="
M 18 525
Q 18 525.5 17.85 525.55 4.9 530.4 0 543 0 549 0 555 0 555.5 0 556 8.15 575.85 32.7 580.55 41.3 582.2 49.9 585.25 115.85 608.65 181.9 632.35 247.6 655.9 313.8 679.55 379.5 703.05 445.85 726.35 503.05 746.45 559 768
L 559 767.5
Q 602.95 783.1 645 796 604.85 778.15 563.2 761.45 499.6 735.95 435.9 710.25 372.05 684.45 308.65 658.85 244.5 633 181.4 607.5 117 581.5 55 554 133.1 542.55 210.85 530.15 287.4 517.9 365.85 505.9 415.8 498.3 467 491 459.75 489.75 450 490.5
L 450 490
Q 401.7 496.2 350.1 500.1 267.8 506.3 185.05 513.45 103.1 520.55 18 525 Z"/>

<path fill="#939393" fill-opacity="0.9921568627450981" stroke="none" d="
M 676 783
Q 676 783.5 675.95 784 675.55 787.55 674 790 674.75 795.2 675.9 800.05 676 800.5 676 801 683.55 812.95 699.9 816.5 700 816.5 700 817 732.7 804.7 761.9 789.7 821.55 759 880.6 729.25 940.55 699 999.65 669.3 1049.65 644.15 1098 618 1038.8 639.8 980.15 662.4 915.8 687.25 851.05 712.05 786.35 736.85 720.65 760.05 695.5 769 676 783 Z"/>

<path fill="#FDFEFE" fill-opacity="0.996078431372549" stroke="none" d="
M 1140.9 374.05
Q 1147.15 291.65 1153.7 209 1160.45 124.45 1166 44 1114.4 48.4 1059.05 54.3 978.45 62.95 897 71.1 815.75 79.2 734.95 87.3 653 95.5 573 105 566.45 132.45 560.9 161 546.4 235.9 531.65 310.95 516.95 385.45 502 460 506.75 461.25 511.15 462.15 585.65 477.85 658.3 493.65 732.65 509.85 805.3 525.6 879.7 541.8 952.3 557.6 1026.7 573.8 1099 591 1090 590.5 1082 589.1 1005.7 575.85 928.1 563.45 851.35 551.15 774.85 538.95 697.05 526.5 620.85 513.85 543.45 501.05 467 488 466.5 488 466.05 488.1 458.9 489.9 450 490
L 450 490.5
Q 459.75 489.75 467 491 415.8 498.3 365.85 505.9 287.4 517.9 210.85 530.15 133.1 542.55 55 554 117 581.5 181.4 607.5 244.5 633 308.65 658.85 372.05 684.45 435.9 710.25 499.6 735.95 563.2 761.45 604.85 778.15 645 796 602.95 783.1 559 767.5
L 559 768
Q 623.75 792.8 688.1 817.75 690.35 818.65 692 820 692.5 820 693 820 693.5 820 694 820 694 819.5 694 819 697.2 818.7 699.15 817.25 699.5 817 700 817 700 816.5 699.9 816.5 683.55 812.95 676 801 676 800.5 675.9 800.05 674.75 795.2 674 790 675.55 787.55 675.95 784 676 783.5 676 783 695.5 769 720.65 760.05 786.35 736.85 851.05 712.05 915.8 687.25 980.15 662.4 1038.8 639.8 1098 618 1110.2 612.25 1121.8 605.6 1122 605.5 1122 605 1124.1 598.1 1124 589 1124 588.5 1124 588 1125.5 564 1127.55 540.05 1134.6 458.1 1140.9 374.05
M 1118 213.8
Q 1104.25 288.8 1090.6 365.75 1077.25 440.8 1063.8 517.8 1062.6 524.6 1062 533 983.45 522 905.9 510.75 827.15 499.35 749.9 487.7 671.55 475.9 593.1 464.35 555.2 458.8 517.15 452.05 517 452 517 451 541.1 385.6 564 318.35 586.6 252.05 609 185.65 613.7 171.7 619 159 694.65 145.15 770 131.05 845.5 117 921 102.9 996.35 88.8 1072 74.95 1108.7 68.2 1145 61 1132 137.5 1118 213.8
M 649.9 557.6
Q 725.1 571.45 800.95 585.35 876.3 599.2 952.05 612.75 961.55 614.45 970 617 900.6 637.15 831.1 657.4 762 677.5 692.9 697.7 649 710.5 605 723 540.45 698.05 476.85 672.45 412.8 646.65 349 621 285.15 595.3 220.75 570.6 213.25 567.75 208 563 286.45 551.9 364.7 539.2 421.05 530.1 479.05 527.95 488.9 527.6 498.9 529.5 573.85 543.65 649.9 557.6 Z"/>

<path fill="#949494" fill-opacity="0.996078431372549" stroke="none" d="
M 1208.5 17.85
Q 1208.7 15.75 1207.45 13.3 1203.95 6.55 1198 2 1194.75 1.25 1191.1 0.5 1191 0.5 1191 0 1190.5 0 1190 0 1186 0 1182 0 1181.5 0.5 1180.95 0.6 1103.15 12.6 1025.05 24.4 947.65 36.1 870 47.85 792.15 59.6 714.05 71.4 636.65 83.1 559 95 546.6 145.6 534.9 197 518.35 269.85 501.85 342.2 485.05 415.55 467 487 467 487.5 467 488 543.45 501.05 620.85 513.85 697.05 526.5 774.85 538.95 851.35 551.15 928.1 563.45 1005.7 575.85 1082 589.1 1090 590.5 1099 591 1026.7 573.8 952.3 557.6 879.7 541.8 805.3 525.6 732.65 509.85 658.3 493.65 585.65 477.85 511.15 462.15 506.75 461.25 502 460 516.95 385.45 531.65 310.95 546.4 235.9 560.9 161 566.45 132.45 573 105 653 95.5 734.95 87.3 815.75 79.2 897 71.1 978.45 62.95 1059.05 54.3 1114.4 48.4 1166 44 1160.45 124.45 1153.7 209 1147.15 291.65 1140.9 374.05 1134.6 458.1 1127.55 540.05 1125.5 564 1124 588 1135.7 510.2 1147.5 432.9 1159.4 354.9 1171.35 277.05 1183.2 199.7 1195.2 122.05 1203.15 70.65 1208.5 17.85 Z"/>
</g>
</defs>

<g transform="matrix( 1, 0, 0, 1, 0,0) ">
<use xlink:href="#Layer0_0_FILL"/>
</g>
</svg>
